<?xml version="1.0" encoding="utf-8"?>
<!-- Generator: Adobe Illustrator 25.4.1, SVG Export Plug-In . SVG Version: 6.00 Build 0)  -->
<svg version="1.1" id="Layer_1" xmlns="http://www.w3.org/2000/svg" xmlns:xlink="http://www.w3.org/1999/xlink" x="0px" y="0px"
	 viewBox="0 0 191.9 37.3" style="enable-background:new 0 0 191.9 37.3;" xml:space="preserve">
<style type="text/css">
	.st0{fill:#FF6900;}
</style>
<g transform="translate(-17.145 -17.145)">
	<path class="st0" d="M43.3,22.2L52,33.1l-3.1,13.7l-12.6,6l-12.6-6l-3.1-13.6l8.8-11H43.3z M36.2,17.1L21,24.5l-3.8,16.6l10.6,13.3
		h17l10.6-13.3l-3.8-16.6L36.2,17.1z M38.3,36.5c1.5,0,2.4-0.1,2.8-0.5c0.2-0.2,0.3-0.6,0.4-0.9c0-0.3-0.1-0.7-0.4-0.9
		c-0.4-0.4-1.2-0.4-2.8-0.4H32v2.8L38.3,36.5z M45,42.6h-4.6L36,38.9h-3.9v3.7h-3.3V31h9.6c3.5,0,4.7,0.4,5.5,1.2
		c0.6,0.7,0.9,1.7,0.9,2.7c0.1,1-0.3,1.9-1,2.7c-0.6,0.6-1.6,1.1-3.6,1.2L45,42.6z"/>
	<path class="st0" d="M102.2,45.4h22.2v-3.9H107v-2.8h12.5V35H107v-2.8h17.4v-3.9h-22.2V45.4z M191.6,41.5V28.2h-4.9v17.1H209v-3.9
		H191.6z M173.6,28.2h-7.2L157,45.4h5.2l1.9-3.5h11.5l1.9,3.5h5.4L173.6,28.2z M166,38.3l3.8-7.2l3.8,7.2H166z M86.7,36.3
		c2.2,0,3.6-0.2,4.2-0.8c0.7-0.7,0.7-1.9,0-2.7c-0.5-0.5-1.6-0.6-4.2-0.6h-9.3v4.1L86.7,36.3L86.7,36.3z M96.6,45.4L96.6,45.4
		l-6.8,0.1L83.1,40h-5.8v5.5h-4.9V28.2h14.1c5.2,0,6.9,0.6,8.2,1.9c0.9,1.1,1.4,2.5,1.3,3.9c0.1,1.4-0.4,2.9-1.4,3.9
		c-1,1-2.4,1.6-5.3,1.9L96.6,45.4z M138.8,41.6c-2,0-2.9-0.4-3.6-0.9c-1.1-1-1.6-2.4-1.5-3.8c-0.1-1.4,0.5-2.8,1.5-3.8
		c0.7-0.5,1.6-0.9,3.6-0.9h14v-3.9h-14c-4.1,0-5.7,0.4-7.2,1.7c-2,1.7-3,4.2-2.8,6.8c-0.2,2.6,0.9,5.1,2.8,6.8
		c1.5,1.3,3.1,1.7,7.2,1.7h14V35h-12v3.6h7.1v2.8L138.8,41.6L138.8,41.6z"/>
</g>
</svg>
